<svg width="401" height="402" viewBox="0 0 401 402" fill="none" xmlns="http://www.w3.org/2000/svg">
<path d="M120.997 98.4954C116.323 95.6147 112.148 92.7002 109.295 87.7768C105.656 81.4979 105.039 72.5109 107.885 65.8139C108.612 63.9539 111.353 60.7639 111.645 58.93C112.374 54.3494 111.607 51.008 112.885 46.3157C113.833 42.7716 115.477 39.4507 117.723 36.5461C123.861 28.5473 136.182 20.921 145.907 17.7113C150.018 16.3545 155.378 16.7242 158.395 15.2893C164.126 12.5632 167.449 7.71795 173.377 4.30932C182.324 -0.835533 193.17 -0.852012 202.918 1.54217C213.112 4.04567 221.441 10.8216 226.504 19.9103C230.229 26.5997 232.005 33.3858 229.727 40.9469C228.622 44.6183 226.176 49.3516 223.047 51.7398C222.097 52.4658 219.345 53.9135 218.179 54.5531C222.663 57.9404 223.291 59.6397 222.158 65.4353C221.465 68.9811 220.304 72.9201 217.602 75.5025C216.313 76.7335 213.084 77.4557 212.753 79.4136C215.457 86.6569 223.342 86.1185 227.677 91.2434L227.849 91.4502C229.708 94.0254 230.062 97.0348 228.247 99.753C227.465 101.033 225.578 102.654 224.422 103.701C230.316 111.608 231.695 119.566 229.599 129.148C229.403 130.038 226.816 137.272 227.731 137.791C232.035 140.231 236.011 141.241 239.334 145.24C246.789 154.218 251.731 165 259.875 173.437C265.321 179.061 269.866 182.262 277.867 182.401C281.63 180.593 282.679 175.292 284.01 171.536C286.164 165.506 288.284 159.463 290.369 153.408C293.889 143.056 293.449 139.299 302.531 132.693C299.827 129.559 299.441 128.208 299.241 124.244C286.86 125.275 272.965 127.466 262.394 119.083C250.947 110.002 260.365 93.9639 272.986 93.9539C276.555 93.9511 277.532 93.6443 280.331 96.2072C276.124 98.7971 270.994 100.088 267.35 103.567C265.638 105.2 264.381 107.462 264.428 109.873C264.47 112.025 266.024 114.298 267.52 115.744C268.681 116.867 270.091 117.773 271.632 118.28C275.394 119.52 282.954 119.191 287.132 119.194C292.333 119.198 297.638 118.904 302.763 118.003C307.999 117.083 313.217 115.259 318.401 114.019C333.365 110.438 379.06 100.421 389.018 90.3469C391.775 87.5591 393.9 83.1924 393.739 79.21C393.693 78.1081 393.265 77.2095 392.404 76.507C390.714 75.1279 386.552 74.5175 384.409 74.7185C383.35 74.8176 382.406 75.1836 381.677 75.9776C380.674 77.0702 379.479 81.7124 378.697 83.4328C377.452 86.129 375.835 88.6369 373.892 90.883C371.221 93.8933 367.987 96.353 364.369 98.1236C360.504 100.017 353.901 101.902 349.626 103.222C338.893 106.564 328.03 109.471 317.061 111.937C307.273 114.17 297.952 116.016 287.842 116.767C281.937 117.205 274.738 115.965 274.303 108.468C273.868 101.003 281.618 100.053 285.329 96.0455C282.304 91.6414 280.508 85.5831 283.835 80.6798C285.981 77.5174 290.995 77.2436 294.534 76.8019C295.083 71.6877 297.584 65.6978 303.136 64.6927C314.932 62.5568 317.375 70.9641 319.267 79.8543C320.074 79.6944 329.43 78.1364 329.519 77.623C329.789 76.0574 329.191 73.0637 329.339 71.1808C329.451 69.7199 329.858 68.2969 330.54 66.9987C333.283 61.8738 339.356 62.3913 343.963 64.4065C346.783 65.6405 349.182 67.7822 351.867 69.2852L352.09 69.4077C356.946 61.3576 360.727 59.4144 370.607 60.6551C373.089 60.9668 376.949 63.0651 378.129 65.1893C378.853 66.493 378.981 67.5875 379.983 69.0139C385.014 69.3775 391.166 67.2718 395.528 70.2305C407.332 78.2346 397.762 94.64 388.208 99.9417C386.098 101.112 380.693 103.619 379.814 105.124C377.326 109.378 380.358 111.759 377.578 116.789C379.362 118.342 381.901 120.984 381.977 123.363C382.215 130.741 369.902 135.118 364.169 136.141C359.985 136.887 355.513 136.923 351.416 137.313C352.156 139.021 352.83 140.757 353.438 142.516C357.77 155.373 353.815 169.017 351.399 181.895C348.705 196.253 347.067 211.305 340.848 224.683C337.285 232.344 330.773 235.389 323.255 237.858C323.969 241.558 325.552 244.445 326.68 247.961C328.106 252.412 329.328 257.363 330.168 261.96C331.289 268.44 332.283 274.943 333.141 281.465C333.944 287.167 334.721 292.8 335.254 298.539C336.175 308.493 335.934 318.44 336.48 328.355C336.953 336.937 337.893 345.448 338.1 354.109C338.237 359.737 337.632 365.031 337.683 370.522C337.734 370.583 337.788 370.641 337.839 370.699C341.418 374.308 346.402 375.157 347.525 381.145C348.275 385.132 348.286 390.238 345.787 393.691C344.159 395.945 340.643 399.6 337.837 399.944C331.897 400.659 325.87 400.54 319.9 400.912C307.119 401.708 294.28 401.949 281.476 401.993C279.712 401.893 277.553 402.151 275.822 401.842C270.88 400.958 266.378 396.732 265.801 391.672C265.345 387.685 265.065 383.062 266.576 379.298C267.071 378.061 268.623 376.058 269.426 374.955C267.025 367.531 266.229 359.598 266.05 351.828C265.768 339.518 269.805 300.7 263.423 291.73C262.355 290.23 260.889 288.977 259.018 288.685C258.299 288.571 257.515 288.531 256.915 288.989C256.322 290.616 257.487 295.954 257.641 298.23C257.829 300.888 257.867 303.552 257.75 306.212C257.129 318.006 250.588 325.38 241.726 333.154C225.767 347.154 203.635 354.525 184.009 361.866C179.455 363.569 172.069 363.056 167.01 364.314C162.452 365.447 158.142 366.408 153.636 367.795C150.753 368.485 147.151 368.582 144.115 369.13C133.522 371.119 122.872 372.799 112.181 374.171C107.57 374.749 102.924 375.371 98.2751 375.547C94.9881 375.67 92.5441 374.41 89.2722 374.278L88.9341 374.268C87.8366 376.229 87.7714 378.348 87.0127 380.518C86.0941 383.264 83.406 385.181 80.9261 386.455C74.105 389.957 63.359 386.506 60.1641 379.46C59.4698 377.956 59.0668 376.336 58.9761 374.684C58.6161 366.672 59.7074 357.407 59.8181 349.356C59.9031 343.187 60.2691 337.074 60.4517 330.919C60.4601 327.362 60.2735 323.887 60.3642 320.32C60.4875 315.472 64.7529 311.204 69.1691 309.605C74.3689 307.725 79.7891 308.328 84.8074 310.584C94.8091 300.581 106.5 304.766 119.169 301.108C122.244 300.219 139.477 300.54 140.79 299.623C140.384 298.27 138.817 295.838 138.048 294.473C126.876 274.644 123.341 249.899 124.582 227.4C118.484 230.327 112.1 236.475 106.941 241.072C100.343 246.954 91.3518 252.695 82.9276 255.513C77.729 257.251 71.4323 254.596 67.1951 251.881C65.7283 250.938 62.7391 249.462 61.0362 249.78C57.4674 250.444 52.5368 254.605 48.979 256.56C46.7316 257.81 44.3306 258.762 41.8366 259.396C35.1786 261.099 32.8793 259.17 31.5845 252.693C25.9503 254.327 21.0839 257.193 14.9792 256.894C12.8937 256.792 10.8569 256.249 9.45875 254.603C7.82724 252.681 7.57083 249.933 6.60081 247.671C3.71867 240.94 -0.728441 235.651 0.101509 227.869C0.376996 225.286 1.41542 223.241 3.30334 221.466C8.46988 216.611 31.1422 208.07 38.6962 206.429C41.4522 205.83 47.3884 206.373 49.4557 205.039C50.3404 204.468 53.699 197.5 54.7972 195.877C58.3269 190.706 62.5865 186.071 67.4443 182.115C85.8081 167.337 118.277 150.735 142.421 149.215C147.415 148.9 150.973 149.593 155.803 150.11C159.664 141.785 165.458 145.589 166.93 143.129C166.844 141.265 164.14 137.347 163.042 135.575C159.931 136.357 158.254 138.552 155.76 139.406C152.023 140.878 144.92 139.773 142.191 136.888C137.822 132.269 136.884 132.363 130.99 130.82C126.7 129.697 125.303 122.836 123.79 118.912C121.386 117.54 118.814 117.091 117.06 114.659C113.048 109.098 116.157 102.166 120.997 98.4954ZM134.214 210.611C141.428 205.652 148.635 200.743 157.366 198.701C159.653 198.166 166.715 196.596 165.598 201.797C165.476 202.361 164.509 202.841 164.045 203.057C161.669 203.978 158.087 205.283 155.839 206.141C151.608 207.754 134.552 217.938 133.165 221.259C130.056 228.705 131.736 248.666 132.89 256.59C133.535 260.934 134.423 265.239 135.547 269.484C136.573 273.302 142.505 292.581 146.854 292.653C150.062 290.337 153.999 283.894 156.587 280.564C159.995 276.192 163.563 271.944 167.284 267.834C174.656 259.727 183.534 249.23 191.807 242.576C206.094 231.086 223.856 222.336 241.126 216.353C245.439 214.858 248.741 213.183 253.287 212.194C257.869 211.201 261.252 211.282 265.798 210.948C276.55 210.154 287.421 209.832 298.129 211.389C304.304 212.287 310.2 215.279 313.899 220.394C316.189 223.564 317.708 228.626 320.598 230.494C322.562 230.543 324.36 230.594 326.331 230.503C339.884 222.415 341.413 194.688 344.128 180.467C346.369 168.733 351.015 153.889 345.559 142.534C342.178 135.797 326.266 133.089 319.321 134.071C304.308 136.091 302.138 138.631 297.721 152.46C294.271 163.264 290.86 176.07 284.287 185.364C282.574 187.663 279.147 189.541 276.362 189.927C270.315 190.768 264.947 188.141 260.163 184.595C254.511 180.44 251.147 174.343 246.868 168.952C240.832 161.349 236.707 150.079 227.507 145.859C222.481 143.554 222.363 148.419 220.122 149.36C213.323 152.215 212.616 154.4 210.687 161.264C209.049 166.121 205.049 170.039 200.246 171.267C191.892 173.401 179.663 168.542 173.202 164.239C162.909 157.384 159.589 152.842 146.674 155.751C143.391 156.49 135.812 155.639 132.129 157.239C110.079 163.52 86.4738 175.408 69.1393 190.429C66.2728 193.177 63.2668 197.048 61.2779 200.38C56.9137 207.692 52.5557 217.165 55.2037 225.852C57.2794 232.662 61.4348 241.629 68.0199 245.296C72.7316 247.919 78.464 248.908 83.7934 247.459C92.3647 244.725 99.5192 237.471 106.344 231.94C115.427 224.581 124.859 217.592 134.214 210.611ZM169.903 17.601C172.679 21.2548 175.204 24.7233 174.559 29.6664C174.178 32.4224 172.704 34.9106 170.467 36.5721C166.647 39.4323 160.613 38.8264 157.682 34.9763C155.127 31.6194 156.305 26.6066 156.035 22.6644C155.271 22.5335 153.659 22.2446 152.925 22.3999C138.244 25.5082 122.37 34.9373 118.584 50.3953C118.309 51.5198 118.425 53.2664 118.537 54.3633C122.863 52.8798 126.696 52.0213 131.025 54.01C135.248 55.9507 137.195 61.3822 134.964 65.4112C131.662 71.3728 124.223 71.447 118.974 68.5984C117.891 68.0038 116.855 67.3273 115.875 66.5749C113.653 70.3811 112.093 73.7574 113.401 78.2787C114.717 82.8025 117.672 88.1743 121.978 90.4826C126.697 93.0131 133.285 93.357 138.142 90.9319C142.559 88.8262 145.45 84.8068 148.681 81.2951C153.439 76.1219 157.878 70.1877 162.863 65.2552C170.363 57.8346 181.634 51.1048 192.6 51.9122C193.994 52.015 195.257 52.1032 196.366 52.8861C197.407 53.6204 197.285 54.9298 196.752 55.7096C193.216 57.09 187.51 56.5075 183.301 58.1186C168.89 63.6334 160.381 75.081 150.817 86.2457C146.453 91.2557 143.678 93.648 137.544 96.2961C138.126 97.8297 138.323 98.3942 138.646 100.001C130.023 101.753 124.63 96.6696 122.138 108.831C122.935 110.978 123.185 111.296 124.932 112.72C128.999 109.103 129.92 104.315 136.561 104.122C143.185 103.684 143.265 112.619 138.999 115.739C136.921 117.26 132.954 118.079 132.103 120.34C131.324 122.409 135.047 126.242 137.17 124.985C139.07 121.41 140.363 117.65 144.493 115.981C146.52 115.161 148.525 117.296 148.827 119.118C149.651 124.092 147.056 126.884 144.123 130.117C146.117 132.313 148.6 133.955 151.659 134.104C153.893 134.225 156.078 133.416 157.692 131.87C160.754 128.916 160.663 124.72 160.263 120.847C158.309 121.142 155.758 121.742 154.076 120.466C151.182 118.27 148.465 111.354 147.979 107.823C147.258 102.583 148.258 100.783 150.956 97.0037C158.013 86.3026 166.926 81.5332 178.963 77.9329C181.721 77.1078 185.482 75.0105 188.353 74.7951C192.161 74.5799 195.921 73.8108 199.69 73.4091C203.611 72.9909 208.137 73.7305 211.934 72.4158C216.041 70.9938 217.477 65.7735 217.29 61.9357C216.502 61.0253 216.283 60.7317 215.343 60.0187C212.081 59.8546 206.504 60.5537 207.043 55.7637C207.197 54.4081 207.376 53.6814 208.509 52.8078C210.682 51.0633 213.449 50.474 215.885 49.3994C220.662 47.1673 223.279 41.753 223.968 36.8035C224.883 30.233 222.849 26.1102 218.903 21.0285C211.951 12.0763 201.214 5.18196 189.503 6.20151C182.526 6.74436 176.415 9.76146 171.857 15.1029C171.165 15.9036 170.514 16.7372 169.903 17.601ZM307.014 69.7853C300.504 71.2864 299.715 73.6732 300.546 79.8789C301.567 82.533 303.959 85.1166 302.817 88.0441C302.603 88.5916 302.217 89.1112 301.642 89.3092C300.523 89.6942 299.21 89.0542 298.291 88.4554C295.993 86.9554 293.161 83.1627 290.236 83.6566C288.984 83.868 287.84 84.6195 287.116 85.6555C286.537 86.4884 286.299 87.4966 286.565 88.4865C287.705 92.7436 296.923 95.7129 294.387 99.2898C292.361 102.151 279.389 102.782 279.726 107.229C279.775 107.856 280.131 108.442 280.617 108.819C284.74 112.003 319.5 105.476 325.838 104.101C331.182 102.942 336.45 101.542 341.774 100.307C344.428 99.6908 347.158 99.2928 349.78 98.5522C352.705 97.7267 355.583 96.5869 358.459 95.6003C360.101 95.0371 362.24 94.5873 363.626 93.522C365.439 92.1323 369.19 85.8379 370.632 83.5667C372.682 80.3391 375.165 76.0952 374.188 72.1445C373.762 70.3586 372.615 68.828 371.016 67.9145C369.648 67.1265 367.519 66.7675 365.967 66.9757C361.332 67.7058 358.803 69.8635 357.363 74.4797C356.742 76.5425 356.737 80.2825 354.024 80.7464C351.446 81.1795 348.724 76.7116 347.283 75.0864C345.515 73.0902 340.752 69.4033 337.958 70.0005C331.059 71.4751 336.413 76.4181 337.941 78.4284C346.02 89.0616 333.034 86.3926 327.008 86.2875C324.097 86.307 315.342 87.291 315.672 91.2768C316.077 96.1255 326.585 93.3115 329.353 92.2349C336.848 89.3217 340.547 94.791 332.539 98.1475C324.258 101.619 309.811 103.248 308.704 90.8143C308.171 84.8188 314.944 83.0067 313.269 76.1333C312.892 74.5375 312.08 73.0767 310.923 71.9121C309.532 70.5159 308.813 70.3354 307.014 69.7853ZM164.546 113.794C166.326 122.447 166.026 132.574 173.771 138.353C181.039 143.387 194.089 144.669 202.83 145.339C209.326 145.664 216.637 146.955 220.697 140.479C225.583 132.686 225.532 122.896 224.755 114.049C224.212 107.855 215.206 107.302 210.534 108.071C203.821 108.997 197.345 110.732 193.078 116.281C190.338 119.845 187.671 127.271 182.895 127.77C174.097 128.689 168.935 119.001 164.546 113.794ZM183.536 120.489C185.597 118.805 186.727 116.978 188.065 114.715C191.192 109.426 195.551 105.256 201.422 103.218C208.039 100.921 214.533 102.441 220.729 98.5643C225.892 95.3332 221.004 92.4906 217.416 91.4785C214.345 90.6518 212.039 88.5805 210.275 86.0798C208.035 83.0306 207.246 78.297 202.546 78.4319C201.076 78.4838 198.907 78.3815 197.533 78.6106C186.361 79.7547 174.618 83.8761 164.825 89.1479C162.796 90.2399 159.139 91.223 158.231 93.4322C159.786 95.0364 162.579 96.4623 163.808 98.1783C165.433 100.447 166.676 105.063 167.765 107.28C169.796 111.412 175.208 121.69 180.668 121.445C181.98 121.386 182.405 121.117 183.536 120.489ZM22.5683 249.827C26.5236 248.611 29.1977 247.705 33.0145 245.914C35.1269 244.92 39.5182 242.298 41.3249 241.831C42.4241 241.539 43.5919 241.66 44.6077 242.17C46.6788 243.196 47.5497 245.443 46.3549 247.49C44.6924 250.34 41.8201 251.282 39.9338 254.039L39.7262 254.338C43.7675 252.621 53.7309 247.051 57.1722 244.178C49.791 234.799 46.8333 226.47 47.9513 214.165C48.0497 213.081 48.5653 211.711 48.4334 210.72C48.0229 210.518 48.2016 210.53 47.9236 210.549C35.4245 214.977 22.0578 218.187 10.9486 225.69C9.95202 226.363 7.76325 227.5 7.31349 228.549C8.44708 230.387 11.8944 229.8 11.8579 232.808C10.8823 234.472 9.17139 234.349 8.46802 235.558C9.18373 237.457 15.0788 235.113 16.1693 237.721C17.2101 240.211 12.5031 241.483 12.487 243.767L12.8826 244.21C15.0027 244.278 17.0109 242.978 18.8137 243.732C20.8202 246.682 13.6371 248.276 14.6211 250.479C16.6663 251.542 20.4147 250.391 22.5683 249.827ZM283.863 256.202C285.764 259.386 287.714 262.503 289.136 265.94C292.563 274.226 293.898 283.043 295.513 291.792C296.442 296.812 297.212 300.14 297.247 305.307C298.571 304.801 298.917 304.61 300.12 303.854C301.288 303.062 302.224 302.424 303.524 301.849C306.703 300.447 311.147 299.744 311.81 295.64C312.31 292.556 311.365 288.993 310.979 285.9C310.507 282.117 310.116 278.371 309.378 274.646C308.583 270.628 307.089 266.832 305.925 262.979C303.885 256.23 302.477 250.022 298.077 244.273C297.328 243.294 296.007 241.474 294.911 240.903C290.604 244.143 285.794 251.266 283.863 256.202ZM332.167 127.32C338.432 128.156 341.001 130.853 346.478 132.423C354.471 134.714 368.771 130.2 375.495 125.593C376.251 125.075 378.494 123.034 377.291 122.028C374.313 119.539 366.121 121.912 363.868 119.427C363.261 115.702 373.422 116.512 374.788 112.488L374.699 111.831C373.88 111.315 367.363 111.662 365.8 110.003C365.446 109.627 364.699 109.598 364.185 109.65L338.135 117.077C328.239 119.843 319.295 122.087 308.992 123.063C307.896 123.167 305.279 123.348 304.646 124.62C303.343 128.6 307.456 130.854 310.87 128.863C311.968 128.221 313.746 127.981 314.921 127.783C320.347 127.249 326.738 126.643 332.167 127.32ZM316.831 296.362C318.311 296 326.466 294.549 326.978 294.243C327.471 292.229 326.259 285.229 325.919 282.792C323.471 265.36 320.984 247.566 312.294 231.945C311.803 231.065 311.049 230.113 310.048 229.807C307.173 230.9 299.122 233.69 299.301 237.491C301.507 241.467 305.269 245.101 306.919 249.43C310.933 259.966 313.813 270.431 314.965 281.678C315.435 286.273 315.917 291.904 316.831 296.362ZM255.914 246.826L256.259 246.837C262.804 247.028 269.177 245.289 275.531 248.701C277.518 249.766 278.716 250.762 280.524 251.922C281.574 251.171 290.504 238.636 290.985 237.208C288.486 233.158 282.232 230.933 277.781 229.86C274.112 228.962 270.319 228.672 266.557 229.004C264.709 229.169 261.573 229.273 260.384 230.784C257.839 234.01 256.398 242.704 255.914 246.826ZM286.469 311.041C287.986 310.491 292.03 308.818 292.819 307.472C293.017 304.506 291.939 300.925 291.423 297.956C290.141 290.616 286.474 268.015 282.116 262.898C281.913 262.661 281.702 262.45 281.481 262.234C279.701 264.478 274.242 275.266 274.977 277.9C277.453 286.754 279.952 295.088 280.275 304.436C280.492 310.682 280.41 311.443 286.469 311.041ZM298.454 311.023C298.015 319.638 299.995 329.427 299.473 338.246C299.425 339.08 299.483 341.769 299.711 342.419C300.274 342.7 300.241 342.672 300.876 342.672C303.594 342.649 310.751 341.716 312.568 339.959C314.025 338.548 313.262 328.694 313.276 326.619C313.329 319.41 312.966 312.281 312.643 305.1C312.62 304.587 312.329 304.388 312.003 304.093L310.858 304.125C307.687 305.369 300.986 308.665 298.454 311.023ZM165.759 151.392C172.874 158.062 190.568 169.671 200.365 166.549C203.542 164.975 204.717 162.811 205.847 159.533C206.443 158.004 207.888 153.552 205.229 153.066C202.201 152.514 198.763 152.242 195.647 152.006C187.331 151.376 180.18 148.91 172.349 146.326C170.048 147.808 167.887 149.66 165.759 151.392ZM322.739 339.565C324.553 339.532 327.704 339.655 329.2 338.878C330.161 337.768 329.893 332.718 329.709 331.353C329.091 326.723 328.455 302.842 326.855 300.296C325.945 299.662 325.04 299.737 323.948 299.781C319.288 300.544 316.01 300.609 316.624 305.933C317.192 310.858 315.823 336.062 317.15 338.847C318.606 339.671 321.028 339.532 322.739 339.565ZM262.578 225.734C272.043 224.973 279.847 225.182 288.454 229.761C290.427 230.812 292.761 232.708 294.566 233.509C295.455 233.098 296.302 232.731 297.142 232.228C300.43 230.074 304.609 227.623 307.664 225.418C303.641 220.619 299.369 217.804 293.014 217.676C286.53 217.544 278.8 217.112 272.402 217.632C265.677 218.298 264.933 219.479 262.578 225.734ZM270.394 272.228C272.346 272.822 272.741 269.972 273.507 268.595C273.882 267.546 274.626 266.054 274.901 265.012C275.706 261.955 278.605 257.82 276.141 254.889C272.869 250.996 267.499 250.047 262.662 250.354C260.956 250.453 256.617 250.402 255.879 251.853C254.132 255.297 254.802 262.661 254.786 266.627C254.774 269.094 257.755 269.027 259.311 269.013C263.439 269.006 266.771 270.396 270.394 272.228ZM233.529 233.783C236.239 232.755 242.082 230.448 244.606 229.812C254.209 227.393 256.673 228.322 261.531 218.639L261.403 218.305H261.082C254.812 219.247 248.664 220.744 242.787 223.142C237.533 225.281 233.659 227.173 232.733 233.351L232.984 233.769L233.529 233.783ZM158.125 331.586C161.027 331.3 169.456 330.595 171.497 328.367C172.911 326.823 171.132 318.911 169.861 317.296C169.305 317.036 169.313 317.073 168.687 317.064C165.27 318.754 161.97 320.218 158.339 321.395C157.187 321.771 155.903 322.277 155.036 323.14C154.729 324.558 155.967 329.629 156.669 331.019C156.967 331.609 157.484 331.787 158.125 331.586ZM167.432 280.464C170.747 280.71 179.243 279.392 182.046 277.401C184.89 275.377 184.421 268.758 185.128 265.657C185.6 263.422 187.042 259.416 186.596 257.423C184.793 258.776 168.282 277.846 167.161 279.972C167.217 280.081 167.361 280.388 167.432 280.464ZM201.318 286.125C201.401 284.062 202.332 275.066 201.516 274.175C192.804 276.491 184.294 280.873 186.087 291.344C186.133 291.614 186.365 291.952 186.524 292.164C189.347 291.876 191.522 291.335 194.233 290.516C197.643 289.485 199.207 289.107 201.318 286.125ZM208.181 271.051C207.597 273.286 206.871 281.873 208.156 283.669C210.506 282.996 221.9 278.248 223.44 276.688C223.947 275.423 224.15 264.102 223.745 263.132L223.235 262.991C219.868 264.71 210.943 269.055 208.181 271.051ZM163.874 359.095C165.042 359.002 166.677 358.923 167.791 358.714C174.438 357.853 181.092 355.486 187.322 353.107C188.926 352.494 191.378 351.672 192.758 350.823C190.385 349.201 189.176 348.4 186.133 348.734C182.672 349.324 179.199 350.359 175.73 351.06C170.946 352.025 165.532 352.594 160.905 354.068C161.923 356.087 162.615 357.198 163.874 359.095ZM224.596 311.403C225.669 311.933 226.367 312.267 227.596 311.851C230.334 310.93 234.657 304.562 235.881 302.071C234.571 300.433 234.083 299.674 231.83 299.674C228.775 301.298 225.795 304.237 222.772 306.07C221.786 306.671 220.655 307.354 219.72 308.001C221.411 309.528 222.561 310.32 224.596 311.403ZM152.899 297.652C152.069 297.98 151.913 297.984 151.406 298.734C151.228 302.77 170.23 311.348 175.377 307.379C177.938 304.536 177.631 303.64 177.863 299.799C172.279 300.41 165.633 301.672 159.953 300.236C157.643 299.651 155.867 298.054 152.899 297.652ZM183.474 343.925C181.897 341.605 177.642 334.944 175.569 333.489C175.334 333.452 174.911 333.368 174.692 333.37C172.032 334.145 169.357 334.867 166.669 335.538C158.132 337.648 155.316 337.088 158.924 346.792C159.188 347.502 159.458 348.094 159.852 348.741C161.13 348.597 164.331 348.029 165.229 348.008C170.658 347.627 173.591 346.527 178.729 345.079C180.272 344.645 181.977 344.392 183.474 343.925ZM196.47 345.186C199.329 348.899 201.494 348.254 205.222 346.174C210.717 343.631 219.906 339.755 224.592 335.967C220.72 334.535 219.233 334.275 215.04 334.547C208.209 336.543 208.979 338.191 203.421 341.911C201.763 343.02 198.56 343.842 196.47 345.186ZM249.953 298.518C248.269 299.075 246.707 300.303 245.942 300.556C242.775 301.6 241.856 300.396 239.995 304.278C238.871 306.629 237.424 309.387 236.402 311.831L236.577 312.132L237.659 312.102C241.526 311.023 248.055 309.243 250.381 305.55C251.328 304.049 251.27 299.616 249.953 298.518ZM273.93 346.933C273.328 351.765 272.939 365.027 275.922 369.411C276.65 370.483 278.568 370.917 279.833 371.093C280.15 367.466 280.236 352.195 278.032 349.122C277.148 347.885 275.38 347.358 273.93 346.933ZM189.888 322.205C191.465 321.423 194.486 320.139 195.42 318.826L195.477 318.45C193.817 317.013 180.467 317.243 177.532 317.433C176.444 317.547 175.101 317.649 174.042 317.828C179.023 329.079 178.784 325.855 189.888 322.205ZM128.9 65.2397C132.805 62.4396 129.533 60.2951 126.251 59.7915C124.92 59.5875 123.337 59.6666 121.996 59.7839C121.386 60.3348 121.323 60.3102 121.109 61.1258C121.339 63.2575 125.798 65.255 127.823 65.4834C127.948 65.4975 128.719 65.2903 128.9 65.2397ZM245.181 291.008C244.623 292.37 243.634 294.445 243.618 295.842L243.871 296.318C244.448 296.378 244.767 296.165 245.302 295.928C247.119 295.248 248.748 294.821 249.641 292.916C250.165 291.804 248.864 290.04 247.88 289.662C246.707 290.144 246.247 290.339 245.181 291.008ZM273.353 298.267L274.291 301.63C274.607 301.679 274.484 301.716 274.677 301.612C274.077 297.081 273.014 287.406 270.54 283.509L270.131 283.528C269.596 283.948 268.572 285.155 268.914 285.818C271.048 289.936 272.111 293.811 273.353 298.267ZM248.82 274.683C245.502 275.481 232.354 277.981 230.879 280.207C229.946 281.615 231.197 284.528 231.677 285.981C232.102 287.274 232.472 288.218 233.438 289.216C235.034 288.78 239.271 285.835 241.398 284.732C245.302 282.706 248.762 283.284 251.619 280.603C251.119 279.262 250.088 275.14 249.29 274.671L248.82 274.683ZM120.373 309.064C120.213 311.738 120.873 320.125 122.64 322.119C122.825 322.325 123.014 322.53 123.206 322.732C126.347 322.95 129.07 323.061 132.192 322.472C135.457 322.098 145.742 320.306 148.522 318.385C149.612 317.63 145.415 308.263 143.584 307.792C141.321 306.989 139.463 307.258 137.146 307.449C131.992 307.924 125.229 308.899 120.373 309.064ZM256.538 273.274C254.919 275.895 255.137 278.35 257.729 279.933C258.872 280.629 265.517 282.205 266.694 282.154C268.725 279.921 268.069 278.236 265.796 276.424C262.681 273.94 260.535 273.082 256.538 273.274ZM165.859 23.6673C164.629 25.7927 162.849 29.8236 164.773 31.968C165.116 32.1022 165.501 32.2644 165.846 32.3797C167.092 31.5261 166.946 31.7489 167.393 30.08C167.761 28.7105 167.594 26.0452 166.825 24.8279C166.551 24.4032 166.227 24.0135 165.859 23.6673ZM195.84 249.267C197.916 248.511 203.183 246.735 204.361 245.194C204.617 244.108 204.575 243.479 203.588 242.767C202.04 243.734 195.631 247.615 195.27 248.994L195.84 249.267ZM153.398 349.354C153.466 346.576 154.831 338.207 150.534 338.734C148.066 339.312 145.567 339.748 143.048 340.038C139.648 340.433 122.755 341.303 121.062 343.517C119.895 345.042 120.632 348.532 121.113 350.278C121.193 350.57 121.132 350.586 121.386 350.714C122.025 351.032 123.163 350.853 123.878 350.8C133.422 349.609 144.563 351.225 153.398 349.354ZM155.639 100.492C154.336 101.348 154.204 101.693 153.833 103.245C153.205 105.879 153.129 113.527 156.018 114.664C157.533 114.659 158.698 113.624 159.973 112.749C161.405 112.105 162.203 112.144 163.773 112.178C162.213 108.947 159.287 101.719 155.639 100.492ZM274.808 319.487C274.407 322.85 272.041 341.479 275.34 342.716C276.527 342.691 278.021 341.867 277.849 340.477C277.583 338.346 277.414 336.174 277.206 334.039C276.827 330.634 276.755 322.699 275.99 319.858C276.006 319.092 275.606 317.25 275.45 316.414L274.808 319.487ZM228.394 229.16C221.462 232.634 211.846 234.453 210.04 242.85C210.427 243.096 210.252 243.038 210.531 243.101C212.853 242.289 223.061 238.283 224.748 237.111C226.167 236.127 227.314 234.799 228.075 233.251C228.454 232.464 229.141 230.072 228.892 229.22L228.394 229.16ZM149.395 307.479C150.084 311.118 151.433 314.147 153.511 317.224C157.211 317.136 158.083 316.969 161.644 315.941C162.372 315.34 162.51 315.444 162.685 314.713C160.989 313.295 156.408 311.9 154.28 310.464C152.994 309.598 150.751 308.157 149.395 307.479ZM179.842 282.36C177.465 282.801 175.032 283.198 172.674 283.421C171.55 283.528 164.984 283.512 164.654 283.767C163.01 285.036 156.59 292.549 156.339 294.039C157.035 294.693 158.297 294.886 159.289 295.16C164.713 296.562 174.21 297.051 179.278 294.359C180.532 292.317 183.232 283.333 181.352 282.247C180.873 282.27 180.303 282.275 179.842 282.36ZM209.047 304.705C214.396 302.795 224.364 297.541 227.938 293.129L228.177 292.839C227.312 290.472 225.457 283.862 224.308 282.388C223.857 282.261 223.903 282.233 223.449 282.233C219.024 284.138 212.197 286.749 208.535 289.961C208.153 290.298 207.637 291.579 207.437 292.05C206.539 294.169 204.942 303.067 205.047 304.984C205.964 305.754 207.969 305.044 209.047 304.705ZM90.4954 337.429C95.4667 338.096 107.28 338.13 112.161 337.334C113.25 336.9 113.944 336.645 114.975 336.06C115.088 334.445 115.609 330.29 114.657 329.058C112.234 327.886 95.1339 328.264 91.3535 328.355C90.7911 328.418 89.9597 328.392 89.6456 328.91C88.1153 331.437 88.0872 335.559 90.4954 337.429ZM207.974 331.054C206.515 329.622 200.649 323.989 198.982 323.588C195.115 325.029 191.374 327.619 187.3 328.852C185.887 329.279 182.619 330.718 181.984 332.006C182.134 334.663 188.226 340.4 190.839 341.345C195.512 340.368 205.391 335.236 207.974 331.054ZM214.487 310.858C210.364 312.302 206.197 314.822 203.937 318.786C202.891 320.617 204.919 322.144 206.343 323.005C208.346 324.212 211.227 326.612 213.623 326.668C218.472 324.001 221.392 321.06 224.817 316.683C223.454 315.971 222.26 315.21 220.948 314.476C218.947 313.355 216.755 310.765 214.487 310.858ZM247.526 313.091C244.737 314.441 241.61 316.099 238.608 316.841C236.57 317.347 233.913 317.275 232.033 318.067C230.246 318.821 221.755 327.967 221.195 329.109C221.302 330.051 221.639 330.082 222.574 330.376C226.19 331.08 231.332 331.695 234.357 329.525C238.734 326.385 246.559 318.417 248.08 313.481L247.901 313.135L247.526 313.091ZM199.555 293.408C196.771 294.503 193.947 295.496 191.088 296.383C184.344 298.504 183.661 297.399 182.126 304.685C181.835 306.068 180.388 307.767 180.795 309.398C181.433 309.786 181.336 309.651 182.212 309.656C186.084 309.63 190.55 308.969 194.029 308.433C200.606 307.414 203.465 293.586 199.555 293.408ZM93.7193 343.229C92.5429 343.243 91.5561 343.155 90.4653 343.559C89.4092 344.824 89.761 347.836 89.9037 349.442C90.0077 350.614 90.241 352.104 91.1887 352.914C92.6464 354.158 107.051 352.26 109.618 352.03C114.614 351.652 114.918 351.19 114.395 346.093C114.087 343.099 112.375 343.051 109.625 343.09C104.415 343.162 98.9044 342.842 93.7193 343.229ZM201.469 251.514C190.303 252.702 190.287 259.625 188.514 268.795C188.171 270.568 187.582 273.541 188.917 274.952C189.09 274.996 189.568 275.131 189.726 275.149C192.553 273.451 201.965 269.9 202.022 267.305C202.065 265.339 203.235 252.774 202.715 251.846C202.131 251.507 202.154 251.546 201.469 251.514ZM285.571 349.702C285.152 349.848 284.357 350.071 284.277 350.665C283.461 356.76 283.784 363.425 284.522 369.534C285.131 374.591 289.766 373.386 293.668 372.88C294.42 372.63 294.943 372.572 295.355 371.927C296.153 368.123 295.665 354.762 294.448 350.73C293.926 349.004 287.458 349.621 285.571 349.702ZM107.535 356.667C103.208 356.82 95.6486 357.535 91.4991 358.649C92.9463 365.045 93.395 369.784 101.246 368.919C106.556 368.348 112.451 367.157 117.668 367.192C117.572 366.087 117.398 364.795 117.322 363.72C116.733 355.476 114.643 356.588 107.535 356.667ZM224.55 242.458C221.602 242.813 210.608 247.274 208.751 249.469C207.423 251.041 207.737 262.782 207.932 265.228L208.204 265.66C212.258 264.587 220.08 260.18 223.701 257.646C223.85 256.703 224.794 242.813 224.689 242.539L224.55 242.458ZM230.136 275.087C232.74 274.038 247.82 270.123 248.567 268.976C249.148 268.087 249.418 254.605 248.985 253.57C248.955 253.498 248.906 253.436 248.867 253.368C248.548 253.329 248.35 253.285 248.031 253.296C242.163 254.949 236.619 257.43 230.89 259.481C230.427 259.646 229.278 260.465 229.168 260.941C228.373 264.381 228.566 271.464 229.904 274.583C229.978 274.753 230.055 274.92 230.136 275.087ZM148.426 324.098C142.821 325.542 137.6 326.396 131.753 326.974C129.993 327.15 122.168 327.345 120.999 329.002C120.416 329.829 120.574 333.879 120.831 334.955C120.973 335.874 122.613 336.225 123.35 336.362C124.795 336.436 126.215 336.459 127.66 336.343C130.438 336.118 149.894 333.793 150.511 333.12C151.545 331.992 151.379 327.77 151.147 326.294C151.004 325.387 150.824 324.658 150.053 324.082C149.275 323.924 149.195 323.982 148.426 324.098ZM147.002 354.13C138.002 354.195 129.748 354.13 120.916 356.119C121.464 359.081 122.378 364.511 123.278 367.257C124.682 366.57 128.23 365.363 129.741 365.201C135.038 363.678 140.443 362.562 145.91 361.856C149.409 361.381 154.824 360.914 158.074 359.916C156.067 353.26 153.22 353.873 147.002 354.13ZM280.962 315.525C280.704 321.478 282.202 327.693 282.693 333.718C282.9 336.255 283.063 342.083 283.7 344.132C285.774 345.095 293.217 345.527 294.634 343.338C295.034 340.943 294.131 315.959 293.549 313.801L293.228 313.453C287.819 314.917 286.595 315.054 280.962 315.525ZM112.596 309.544C103.873 310.294 90.4079 308.342 90.0333 321.441C89.9702 323.648 92.4584 323.723 94.0534 323.723C99.7242 323.358 105.448 323.595 111.126 323.483C112.49 323.395 114.673 323.632 115.565 322.402C117.12 320.26 116.807 316.669 116.438 314.144C116.089 311.754 115.552 308.978 112.596 309.544ZM311.847 345.894C309.02 346.731 301.891 348.275 300.029 349.646C299.501 350.64 300.076 356.275 300.216 357.834C300.567 361.738 299.732 368.55 300.714 372.11C300.811 372.217 301.121 372.569 301.223 372.641C303.994 372.808 310.097 373.463 312.18 371.855C312.559 371.209 312.908 370.253 312.934 369.531C313.052 366.185 313.946 347.3 312.561 345.947L311.847 345.894ZM325.549 343.881C323.527 344.127 318.741 344.422 317.434 345.664C316.4 348.224 316.389 367.846 317.189 370.819C318.271 371.685 320.556 371.042 321.836 370.717C331.783 368.16 330.936 366.616 330.661 356.416C330.566 352.926 330.342 349.238 329.637 345.829C329.1 343.64 327.299 343.777 325.549 343.881ZM253.502 231.708C247.955 233.27 234.899 236.359 230.948 240.806C230.209 241.639 227.605 254.559 230.008 255.575C233.661 254.728 237.491 252.939 241.063 251.635C243.913 250.593 248.497 249.439 250.309 246.942C251.563 245.215 251.447 242.472 251.985 240.467C252.445 238.585 255.191 233.532 254.255 231.921C254.011 231.845 253.746 231.74 253.502 231.708Z" fill="#5C614E"/>
</svg>
